<?xml version="1.0" standalone="no"?>
<!DOCTYPE svg PUBLIC "-//W3C//DTD SVG 20010904//EN"
 "http://www.w3.org/TR/2001/REC-SVG-20010904/DTD/svg10.dtd">
<svg version="1.0" xmlns="http://www.w3.org/2000/svg"
 width="500.000000pt" height="500.000000pt" viewBox="0 0 500.000000 500.000000"
 preserveAspectRatio="xMidYMid meet">

<g transform="translate(0.000000,500.000000) scale(0.100000,-0.100000)"
fill="#000000" stroke="none">
<path d="M1625 3832 c-60 -20 -105 -80 -105 -141 0 -104 101 -180 190 -143 19
8 60 18 90 21 l55 6 0 35 c0 26 -4 35 -17 34 -12 -1 -17 9 -20 42 -3 40 -1 44
19 44 20 0 23 5 23 35 0 35 0 35 -45 35 -26 0 -63 9 -85 20 -40 20 -68 23
-105 12z m93 -79 c12 -10 24 -35 28 -55 5 -31 2 -41 -20 -62 -53 -54 -136 -23
-136 49 0 69 78 110 128 68z"/>
<path d="M3255 3819 c-19 -12 -48 -19 -78 -19 l-48 0 3 -32 c2 -22 9 -34 23
-38 15 -4 20 -13 20 -43 0 -32 -3 -37 -23 -37 -21 0 -23 -4 -20 -37 l3 -38 55
-5 c30 -3 65 -11 77 -18 41 -23 124 -10 161 25 15 15 52 99 52 120 0 9 -11 36
-25 60 -45 75 -136 104 -200 62z m125 -69 c28 -28 27 -96 -2 -121 -26 -23 -76
-25 -106 -3 -17 11 -22 25 -22 57 0 47 6 58 35 75 31 18 73 14 95 -8z"/>
<path d="M1940 3765 l0 -35 60 0 60 0 0 35 0 35 -60 0 -60 0 0 -35z"/>
<path d="M2140 3765 l0 -35 60 0 60 0 0 35 0 35 -60 0 -60 0 0 -35z"/>
<path d="M2340 3765 l0 -35 60 0 60 0 0 35 0 35 -60 0 -60 0 0 -35z"/>
<path d="M2540 3765 c0 -35 0 -35 44 -35 62 0 76 7 76 41 0 29 0 29 -60 29
l-60 0 0 -35z"/>
<path d="M2740 3765 l0 -35 55 0 c42 0 55 4 56 15 5 52 6 50 -53 53 l-58 3 0
-36z"/>
<path d="M2930 3765 l0 -35 60 0 60 0 0 35 0 35 -60 0 -60 0 0 -35z"/>
<path d="M1940 3610 l0 -40 61 0 60 0 -3 38 -3 37 -57 3 -58 3 0 -41z"/>
<path d="M2142 3613 l3 -38 55 0 55 0 0 35 0 35 -58 3 -58 3 3 -38z"/>
<path d="M2342 3613 l3 -38 58 -3 58 -3 -3 38 -3 38 -58 3 -58 3 3 -38z"/>
<path d="M2542 3613 l3 -38 55 0 55 0 0 35 0 35 -58 3 -58 3 3 -38z"/>
<path d="M2742 3613 c3 -37 4 -38 46 -41 54 -4 70 8 64 48 -4 29 -6 30 -59 30
l-54 0 3 -37z"/>
<path d="M2937 3643 c-13 -13 -7 -61 9 -67 9 -3 36 -6 60 -6 l44 0 0 40 0 40
-53 0 c-30 0 -57 -3 -60 -7z"/>
<path d="M1665 1415 c0 -204 1 -211 20 -213 19 -1 20 5 20 213 0 208 -1 214
-20 213 -19 -2 -20 -9 -20 -213z"/>
<path d="M1848 1620 c12 -5 27 -22 33 -37 16 -42 -11 -85 -72 -113 -64 -31
-56 -38 10 -9 56 23 101 69 101 100 0 27 -44 69 -72 68 l-23 0 23 -9z"/>
<path d="M2503 1622 c-8 -5 -13 -67 -15 -209 -3 -197 -3 -202 18 -206 20 -3
20 -1 17 197 -5 232 -4 228 -20 218z"/>
<path d="M2600 1624 c0 -2 14 -10 30 -19 25 -13 30 -13 30 -1 0 8 -13 16 -30
18 -16 3 -30 3 -30 2z"/>
<path d="M2715 1413 l0 -213 23 0 22 0 0 209 c0 208 0 209 -22 213 l-23 4 0
-213z"/>
<path d="M2920 1624 c0 -6 64 -34 68 -30 9 10 -9 24 -38 28 -16 3 -30 3 -30 2z"/>
<path d="M3296 1610 c4 -8 13 -31 20 -50 l13 -35 1 30 c0 17 3 39 6 50 4 16 0
20 -21 20 -19 0 -24 -4 -19 -15z"/>
<path d="M2138 1603 c-2 -10 4 -38 14 -63 86 -220 109 -288 105 -307 -4 -20 0
-23 29 -23 l33 0 -18 33 c-10 17 -47 110 -82 204 -35 95 -67 173 -71 173 -3 0
-8 -8 -10 -17z"/>
<path d="M2360 1604 c0 -12 4 -14 13 -7 6 6 19 13 27 16 9 3 3 6 -12 6 -20 1
-28 -4 -28 -15z"/>
<path d="M3046 1605 c4 -8 10 -13 15 -10 4 3 13 -5 20 -17 7 -13 64 -102 128
-198 95 -143 117 -170 119 -150 2 19 -29 75 -117 208 -103 155 -125 182 -146
182 -17 0 -23 -4 -19 -15z"/>
<path d="M2800 1456 c0 -3 19 -15 41 -27 28 -14 50 -18 68 -14 24 7 23 8 -19
19 -25 7 -55 16 -67 20 -13 4 -23 5 -23 2z"/>
<path d="M1888 1385 c15 -19 22 -42 22 -72 0 -54 -12 -78 -48 -97 -15 -9 -21
-15 -14 -16 24 0 70 32 81 57 25 55 7 119 -41 144 l-21 12 21 -28z"/>
<path d="M2035 1357 c-36 -35 -45 -50 -45 -78 0 -63 49 -101 102 -80 22 9 21
10 -9 10 -39 1 -63 31 -63 78 0 24 10 44 36 73 48 53 36 51 -21 -3z"/>
<path d="M3053 1253 l-11 -43 30 0 c29 0 30 1 15 23 -8 13 -17 32 -19 42 -2
14 -7 6 -15 -22z"/>
<path d="M2964 1236 c-10 -7 -32 -18 -49 -24 -28 -10 -28 -10 18 -9 36 1 48 6
53 20 8 25 2 29 -22 13z"/>
<path d="M2703 1030 c0 -30 2 -43 4 -27 2 15 2 39 0 55 -2 15 -4 2 -4 -28z"/>
<path d="M2983 1030 c0 -30 2 -43 4 -27 2 15 2 39 0 55 -2 15 -4 2 -4 -28z"/>
<path d="M2283 1020 c0 -25 2 -35 4 -22 2 12 2 32 0 45 -2 12 -4 2 -4 -23z"/>
<path d="M2343 1015 c0 -22 2 -30 4 -17 2 12 2 30 0 40 -3 9 -5 -1 -4 -23z"/>
<path d="M2602 1030 c0 -14 2 -19 5 -12 2 6 2 18 0 25 -3 6 -5 1 -5 -13z"/>
<path d="M2853 1015 c0 -22 2 -30 4 -17 2 12 2 30 0 40 -3 9 -5 -1 -4 -23z"/>
<path d="M2942 1005 c0 -16 2 -22 5 -12 2 9 2 23 0 30 -3 6 -5 -1 -5 -18z"/>
<path d="M2081 1004 c0 -11 3 -14 6 -6 3 7 2 16 -1 19 -3 4 -6 -2 -5 -13z"/>
</g>
</svg>
